<?xml version="1.0" encoding="UTF-8" standalone="no"?>
<svg width="1600px" height="1600px" viewBox="0 0 1600 1600" version="1.1" xmlns="http://www.w3.org/2000/svg" xmlns:xlink="http://www.w3.org/1999/xlink">
    <!-- Generator: Sketch 3.6 (26304) - http://www.bohemiancoding.com/sketch -->
    <title>weblog</title>
    <desc>Created with Sketch.</desc>
    <defs></defs>
    <g id="Page-1" stroke="none" stroke-width="1" fill="none" fill-rule="evenodd">
        <g id="weblog">
            <path d="M800.5,448 C743.853335,448 689.404649,457.410667 638.632044,474.753898 C646.018882,451.149397 650,426.039619 650,400 C650,261.928813 538.071187,150 400,150 C261.928813,150 150,261.928813 150,400 C150,537.644265 261.237705,649.307573 398.719986,649.996792 C336.701345,733.336438 300,836.63219 300,948.5 C300,1224.91852 524.081483,1449 800.5,1449 C1076.91852,1449 1301,1224.91852 1301,948.5 C1301,836.62909 1264.29662,733.330714 1202.27486,649.989865 C1339.29852,648.768496 1450,537.312106 1450,400 C1450,261.928813 1338.07119,150 1200,150 C1061.92881,150 950,261.928813 950,400 C950,425.899683 953.938444,450.879493 961.249102,474.3732 C910.795785,457.273001 856.730805,448 800.5,448 Z" id="Combined-Shape" fill="#343334"></path>
            <path d="M1175.65174,991.721747 C1184.61827,976.705334 1199.24026,984.085739 1197.75867,998.090775 C1176.47905,1199.24132 1006.29221,1355.96752 799.5,1355.96752 C593.273116,1355.96752 423.451729,1200.09705 401.419188,999.739477 C399.820578,985.202176 414.615894,980.005132 423.736221,994.982214 C444.796825,1029.5672 470.507534,1061.0091 499.999953,1088.43953 L500,1178.00221 C500,1204.51066 511.945234,1208.14128 526.685203,1186.1043 L560.477985,1135.58242 C629.080554,1180.03042 710.881701,1205.83967 798.710921,1205.83967 C887.605562,1205.83967 970.324994,1179.40046 1039.43459,1133.95666 L1074.86686,1186.92966 C1089.30299,1208.51239 1101,1204.95682 1101,1178.99875 L1101,1085.07426 C1129.91159,1057.5777 1155.07694,1026.17876 1175.65174,991.721747 Z" id="Combined-Shape" fill="#FFFFFF"></path>
            <path d="M835.467745,911.68432 C815.925021,897.234524 784.248773,897.228042 764.697283,911.68432 L676.582013,976.836329 C657.03929,991.286126 647.438279,984.323434 655.145274,961.261627 L689.879401,857.325947 C697.582941,834.27448 687.800606,804.146575 668.010126,790.019238 L578.817767,726.349715 C559.036161,712.228713 562.691198,700.94602 587.005873,701.149317 L696.588014,702.065544 C720.891786,702.26875 746.52222,683.655162 753.84252,660.46771 L786.83388,555.965771 C794.150899,532.788716 806.010847,532.778319 813.331147,555.965771 L846.322508,660.46771 C853.639526,683.644765 879.262339,702.268841 903.577014,702.065544 L1013.15915,701.149317 C1037.46293,700.946111 1041.13774,712.222379 1021.34726,726.349715 L932.154902,790.019238 C912.373295,804.14024 902.578631,834.26414 910.285626,857.325947 L945.019753,961.261627 C952.723293,984.313094 943.134504,991.292608 923.583014,976.836329 L835.467745,911.68432 Z" id="Star-1-Copy" fill="#FFFFFF"></path>
        </g>
    </g>
</svg>