<svg width="400" height="400" viewBox="0 0 400 400" fill="none" xmlns="http://www.w3.org/2000/svg">
<rect width="400" height="400" fill="white"/>
<path fill-rule="evenodd" clip-rule="evenodd" d="M252.927 80.5599C252.927 94.6737 248.178 107.678 240.189 118.062C302.61 124.041 351.423 176.628 351.423 240.616C351.423 308.613 296.301 363.735 228.304 363.735C160.306 363.735 105.184 308.613 105.184 240.616C105.184 238.884 105.22 237.161 105.29 235.447C97.7217 238.771 89.3562 240.616 80.5599 240.616C46.5613 240.616 19 213.054 19 179.056C19 145.057 46.5613 117.496 80.5599 117.496C106.752 117.496 129.123 133.853 138.016 156.909C145.619 148.712 154.324 141.552 163.897 135.665C143.687 125.571 129.808 104.686 129.808 80.5599C129.808 46.5613 157.369 19 191.368 19C225.366 19 252.927 46.5613 252.927 80.5599ZM228.304 326.799C275.902 326.799 314.487 288.214 314.487 240.616C314.487 193.018 275.902 154.432 228.304 154.432C180.706 154.432 142.12 193.018 142.12 240.616C142.12 288.214 180.706 326.799 228.304 326.799ZM289.863 240.616C289.863 274.614 262.302 302.175 228.304 302.175C194.305 302.175 166.744 274.614 166.744 240.616C166.744 206.617 194.305 179.056 228.304 179.056C262.302 179.056 289.863 206.617 289.863 240.616ZM228.304 277.798C248.839 277.798 265.486 261.151 265.486 240.616C265.486 220.08 248.839 203.433 228.304 203.433C207.768 203.433 191.121 220.08 191.121 240.616C191.121 261.151 207.768 277.798 228.304 277.798ZM240.616 240.616C240.616 247.415 235.103 252.928 228.304 252.928C221.504 252.928 215.992 247.415 215.992 240.616C215.992 233.816 221.504 228.304 228.304 228.304C235.103 228.304 240.616 233.816 240.616 240.616Z" fill="#990000"/>
</svg>
