<svg width="400" height="400" viewBox="0 0 400 400" fill="none" xmlns="http://www.w3.org/2000/svg">
<path fill-rule="evenodd" clip-rule="evenodd" d="M155.513 131.69C135.277 121.605 125.808 100.706 125.808 76.5599C125.808 42.5613 153.369 15 187.368 15C221.366 15 248.927 42.5613 248.927 76.5599C248.927 90.6685 244.181 103.669 236.198 114.051C292.771 119.411 338.204 163.014 346.363 218.725C346.929 222.591 346.363 236.616 337.574 236.616H327.971C325.117 236.616 321.764 238.686 320.487 241.24L312.8 256.615C311.524 259.167 309.452 259.169 308.175 256.615L300.488 241.24C299.212 238.688 295.86 236.616 293.003 236.616H291.036C288.179 236.616 284.828 238.686 283.551 241.24L275.864 256.615C274.588 259.167 272.516 259.169 271.239 256.615L263.552 241.24C262.276 238.688 258.924 236.616 256.067 236.616H254.1C251.243 236.616 247.892 238.686 246.615 241.24L238.928 256.615C237.652 259.167 235.58 259.169 234.303 256.615L226.616 241.24C225.34 238.688 221.988 236.616 219.131 236.616C201.15 236.616 187.368 250.396 187.368 267.395C187.368 280.423 202.265 293.766 202.265 293.766C204.777 295.127 207.932 293.983 209.209 291.429L215.835 278.176C217.112 275.623 219.183 275.622 220.46 278.176L228.147 293.551C229.423 296.102 232.775 298.175 235.632 298.175H237.599C240.456 298.175 243.807 296.105 245.084 293.551L252.771 278.176C254.047 275.624 256.119 275.622 257.396 278.176L265.083 293.551C266.359 296.102 269.711 298.175 272.568 298.175H274.535C277.392 298.175 280.743 296.105 282.02 293.551L289.707 278.176C290.983 275.624 293.055 275.622 294.332 278.176L302.019 293.551C303.295 296.102 306.647 298.175 309.505 298.175H325.508C329.448 298.175 329.235 301.641 328.147 303.332C306.221 337.41 267.96 359.982 224.427 359.982C156.362 359.982 101.184 304.804 101.184 236.739C101.184 234.965 101.221 233.2 101.295 231.444C93.7254 234.77 85.3582 236.616 76.5599 236.616C42.5613 236.616 15 209.054 15 175.056C15 141.057 42.5613 113.496 76.5599 113.496C102.772 113.496 125.157 129.878 134.036 152.962C141.647 144.754 145.93 137.585 155.513 131.69Z" fill="#990000"/>
<path d="M205.836 187.368C216.035 187.368 224.304 179.099 224.304 168.9C224.304 158.7 216.035 150.432 205.836 150.432C195.636 150.432 187.368 158.7 187.368 168.9C187.368 179.099 195.636 187.368 205.836 187.368Z" fill="white"/>
<path d="M279.707 187.368C289.907 187.368 298.175 179.099 298.175 168.9C298.175 158.7 289.907 150.432 279.707 150.432C269.508 150.432 261.24 158.7 261.24 168.9C261.24 179.099 269.508 187.368 279.707 187.368Z" fill="white"/>
</svg>
