<svg width="400" height="400" viewBox="0 0 400 400" fill="none" xmlns="http://www.w3.org/2000/svg">
<rect width="400" height="400" fill="white"/>
<path fill-rule="evenodd" clip-rule="evenodd" d="M132.243 267.486C169.879 267.486 204.122 251.071 226.181 224.024C228.892 220.7 227.168 218.238 224.46 218.484C221.751 218.73 217.321 218.484 217.321 218.484C214.464 218.484 211.111 216.411 209.835 213.86L202.148 198.484C200.871 195.93 198.799 195.933 197.523 198.484L189.836 213.86C188.559 216.414 185.208 218.484 182.351 218.484H180.384C177.527 218.484 174.175 216.411 172.899 213.86L165.212 198.484C163.935 195.93 161.863 195.933 160.587 198.484L152.9 213.86C151.623 216.414 148.272 218.484 145.415 218.484H143.448C140.591 218.484 137.239 216.411 135.964 213.86L128.276 198.484C126.999 195.93 124.928 195.932 123.651 198.485L117.025 211.737C115.748 214.292 112.593 215.435 110.081 214.074C110.081 214.074 95.1838 200.731 95.1838 187.704C95.1838 170.705 108.966 156.924 125.965 156.924H126.947C129.804 156.924 133.156 158.997 134.432 161.549L142.12 176.924C143.397 179.478 145.468 179.475 146.744 176.924L154.432 161.549C155.708 158.995 159.059 156.924 161.916 156.924H163.883C166.74 156.924 170.092 158.997 171.368 161.549L179.055 176.924C180.332 179.478 182.404 179.475 183.68 176.924L191.367 161.549C192.644 158.995 195.995 156.924 198.852 156.924H200.819C203.676 156.924 207.028 158.997 208.304 161.549L215.991 176.924C217.268 179.478 219.34 179.475 220.616 176.924L228.303 161.549C229.58 158.995 232.933 156.924 235.787 156.924H245.855C252.038 156.924 255.486 152.984 255.486 144.243C255.486 76.1777 200.308 21 132.243 21C64.1777 21 9 76.1777 9 144.243C9 212.308 64.1777 267.486 132.243 267.486ZM125.964 104.229C136.163 104.229 144.432 95.9606 144.432 85.761C144.432 75.5614 136.163 67.293 125.964 67.293C115.764 67.293 107.496 75.5614 107.496 85.761C107.496 95.9606 115.764 104.229 125.964 104.229ZM199.836 104.229C210.035 104.229 218.304 95.9606 218.304 85.761C218.304 75.5614 210.035 67.293 199.836 67.293C189.636 67.293 181.368 75.5614 181.368 85.761C181.368 95.9606 189.636 104.229 199.836 104.229Z" fill="#990000"/>
<path fill-rule="evenodd" clip-rule="evenodd" d="M292.914 182.533C347.04 182.533 390.918 226.411 390.918 280.536C390.918 288.687 390.671 304.175 383.038 304.175H373.681C369.465 304.175 366.047 307.595 366.047 311.809C366.047 311.809 366.05 332.829 366.048 339.063C366.047 345.297 363.166 348.902 361.651 350.393C343.962 367.8 319.692 378.54 292.914 378.54C238.788 378.54 194.911 334.662 194.911 280.536C194.911 280.198 194.913 279.859 194.916 279.521C203.766 278.75 206.731 275.545 208.762 273.35C209.895 272.126 210.737 271.215 212.148 271.215C213.506 271.215 214.543 272.324 215.863 273.736C218.372 276.419 221.904 280.197 230.616 279.551C244.178 278.547 255.292 268.471 255.24 254.927C255.221 250.256 258.534 251.696 262.111 253.251C264.002 254.073 265.966 254.927 267.552 254.927C281.151 254.927 292.175 243.903 292.175 230.304C292.175 222.258 289.123 219.261 286.713 216.893C285.139 215.349 283.839 214.072 283.839 211.836C283.839 209.547 285.201 208.102 286.823 206.381C289.216 203.844 292.175 200.704 292.175 193.368C292.175 190.655 291.261 188.4 290.556 186.662C289.469 183.983 288.881 182.533 292.914 182.533ZM378.359 273.395C378.359 283.595 370.091 291.863 359.891 291.863C349.692 291.863 341.423 283.595 341.423 273.395C341.423 263.196 349.692 254.927 359.891 254.927C370.091 254.927 378.359 263.196 378.359 273.395ZM310.643 291.863C320.843 291.863 329.111 283.595 329.111 273.395C329.111 263.196 320.843 254.927 310.643 254.927C300.444 254.927 292.176 263.196 292.176 273.395C292.176 283.595 300.444 291.863 310.643 291.863ZM273.004 352.92C273.004 352.92 255.24 348.935 255.24 328.724C255.24 308.513 273.004 304.529 273.004 304.529C276.739 302.887 279.864 305.119 279.864 309.198V348.25C279.864 352.329 276.793 354.42 273.004 352.92ZM292.176 311.809C292.176 307.595 295.594 304.175 299.811 304.175H309.165C313.382 304.175 316.8 307.593 316.8 311.809V345.59C316.8 349.804 313.381 353.224 309.165 353.224H299.811C295.593 353.224 292.176 349.806 292.176 345.59V311.809ZM336.747 304.175C332.53 304.175 329.112 307.595 329.112 311.809V345.59C329.112 349.806 332.529 353.224 336.747 353.224H346.1C350.317 353.224 353.735 349.804 353.735 345.59V311.809C353.735 307.593 350.318 304.175 346.1 304.175H336.747Z" fill="#990000"/>
</svg>
