<svg width="400" height="400" viewBox="0 0 400 400" fill="none" xmlns="http://www.w3.org/2000/svg">
<path fill-rule="evenodd" clip-rule="evenodd" d="M76.1637 298.256C72.9851 301.609 67.3949 302.1 63.6815 299.349C63.6815 299.349 55.8494 292.019 45.7799 292.019C28.7806 292.019 15 305.8 15 322.799C15 339.799 28.7806 353.579 45.7799 353.579C48.2462 353.579 51.9359 357.306 51.9359 359.735C51.9359 373.335 62.9604 384.359 76.5599 384.359C90.1593 384.359 101.184 373.335 101.184 359.735C101.184 349.941 91.0296 341.329 91.0296 341.329C88.9449 339.184 88.8559 335.756 90.9154 333.584L118.471 304.533C140.146 323.569 168.565 335.111 199.68 335.111C227.227 335.111 252.662 326.064 273.174 310.778L296.035 333.683C298.148 335.8 298.102 339.184 296.018 341.329C296.018 341.329 285.863 349.941 285.863 359.735C285.863 373.335 296.888 384.359 310.487 384.359C324.087 384.359 335.111 373.335 335.111 359.735C335.111 357.306 338.801 353.579 341.267 353.579C358.267 353.579 372.047 339.799 372.047 322.799C372.047 305.8 358.267 292.019 341.267 292.019C331.198 292.019 323.366 299.349 323.366 299.349C319.652 302.1 313.992 301.68 310.723 298.411L298.181 285.869C313.639 265.29 322.799 239.711 322.799 211.992C322.799 178.537 309.456 148.199 287.802 126.009L321.775 90.1913C324.463 87.4982 328.911 87.4075 331.707 89.9915C331.707 89.9915 341.989 101.184 353.579 101.184C370.579 101.184 384.359 87.4032 384.359 70.4039C384.359 53.4046 370.579 39.6239 353.579 39.6239C352.273 39.6239 350.969 39.6623 349.702 39.6996L349.701 39.6996C343.807 39.873 338.719 40.0227 338.066 36.1766C335.85 23.1259 324.087 15 310.487 15C296.888 15 285.863 26.0245 285.863 39.6239C285.863 49.6102 294.936 56.6998 294.936 56.6998C297.853 59.7383 297.935 64.4883 294.954 67.4694L259.817 104.533C242.033 94.5588 221.52 88.8718 199.68 88.8718C171.96 88.8718 146.381 98.0321 125.803 113.491L104.405 92.0933C101.424 89.1123 101.506 84.3623 104.423 81.3238C104.423 81.3238 113.496 74.2341 113.496 64.2479C113.496 50.6485 102.471 39.6239 88.8718 39.6239C75.2724 39.6239 63.5092 47.7498 61.293 60.8005C60.6399 64.6466 55.5526 64.497 49.658 64.3236C48.3906 64.2863 47.0859 64.2479 45.7799 64.2479C28.7806 64.2479 15 78.0285 15 95.0278C15 112.027 28.7806 125.808 45.7799 125.808C57.3703 125.808 67.6527 114.615 67.6527 114.615C70.4483 112.031 74.8958 112.122 77.5838 114.815L101.033 138.309C85.6626 158.854 76.5599 184.36 76.5599 211.992C76.5599 236.181 83.5356 258.741 95.5852 277.769L76.1637 298.256ZM150.555 199.68C171.022 199.68 187.614 183.088 187.614 162.621C187.614 142.153 171.022 125.562 150.555 125.562C130.088 125.562 113.496 142.153 113.496 162.621C113.496 183.088 130.088 199.68 150.555 199.68ZM113.496 254.991C113.496 277.57 131.371 282.082 131.371 282.082C135.098 283.724 138.12 281.748 138.12 277.667V232.315C138.12 228.235 135.032 226.111 131.367 227.903C131.367 227.903 113.496 232.412 113.496 254.991ZM285.863 162.621C285.863 183.088 269.271 199.68 248.804 199.68C228.337 199.68 211.745 183.088 211.745 162.621C211.745 142.153 228.337 125.562 248.804 125.562C269.271 125.562 285.863 142.153 285.863 162.621ZM170.379 224.304C166.162 224.304 162.744 227.723 162.744 231.937V278.23C162.744 282.446 166.161 285.863 170.379 285.863H179.733C183.949 285.863 187.368 282.444 187.368 278.23V231.937C187.368 227.721 183.95 224.304 179.733 224.304H170.379ZM268.025 282.301C268.025 282.301 285.863 278.175 285.863 255.054C285.863 231.932 268.029 227.809 268.029 227.809C264.346 226.059 261.239 228.23 261.239 232.311V277.796C261.239 281.876 264.277 283.894 268.025 282.301ZM219.872 224.304C215.52 224.304 211.992 227.832 211.992 232.182V277.985C211.992 282.336 215.52 285.863 219.872 285.863H228.735C233.087 285.863 236.615 282.335 236.615 277.985V232.182C236.615 227.831 233.087 224.304 228.735 224.304H219.872Z" fill="#990000"/>
</svg>
