<svg width="400" height="400" viewBox="0 0 400 400" fill="none" xmlns="http://www.w3.org/2000/svg">
<path fill-rule="evenodd" clip-rule="evenodd" d="M298.704 234.51C299.686 239.307 303.115 240.226 306.363 236.563L309.919 232.553C313.168 228.889 319.245 227.889 323.413 230.458C323.413 230.458 344.488 241.306 351.546 257.637L352.025 256.42C352.451 252.251 352.67 248.02 352.67 243.739C352.67 179.644 303.742 126.977 241.198 121.051C249.181 110.669 253.927 97.6685 253.927 83.5599C253.927 49.5613 226.366 22 192.368 22C158.369 22 130.808 49.5613 130.808 83.5599C130.808 107.706 144.709 128.605 164.945 138.69C155.362 144.585 146.647 151.754 139.036 159.962C130.157 136.878 107.772 120.496 81.5599 120.496C47.5613 120.496 20 148.057 20 182.056C20 216.054 47.5613 243.616 81.5599 243.616C90.3582 243.616 98.7254 241.77 106.295 238.444C106.221 240.2 106.184 241.965 106.184 243.739C106.184 305.803 152.062 357.153 211.755 365.724C217.526 366.553 222.692 363.759 213.42 360.933L213.343 360.909C209.748 359.656 206.673 355.556 206.475 351.756L206.023 343.087C205.825 339.284 203.528 338.432 200.896 341.18L196.689 345.573C194.056 348.323 189.399 348.775 186.525 346.28C186.525 346.28 166.834 336.202 167.744 292.863C168.518 255.981 199.441 233.162 199.441 233.162C203.14 229.96 208.875 230.242 212.247 233.787L214.975 236.655C218.349 240.202 221.743 239.164 222.557 234.336L223.155 230.785C223.969 225.957 228.569 221.579 233.436 221.045C233.436 221.045 249.218 218.992 262.792 218.992C274.462 218.992 287.142 220.347 287.142 220.347C292.017 220.79 296.765 225.037 297.747 229.835L298.704 234.51ZM223.148 166.789C233.347 166.789 241.616 175.057 241.616 185.257C241.616 195.456 233.347 203.725 223.148 203.725C212.948 203.725 204.68 195.456 204.68 185.257C204.68 175.057 212.948 166.789 223.148 166.789ZM315.488 185.257C315.488 195.456 307.219 203.725 297.02 203.725C286.82 203.725 278.552 195.456 278.552 185.257C278.552 175.057 286.82 166.789 297.02 166.789C307.219 166.789 315.488 175.057 315.488 185.257ZM260.576 265.111C262.09 259.278 268.948 255.928 278.551 255.928C288.155 255.928 303.668 278.582 303.668 292.617C303.668 306.653 284.707 317.487 254.42 317.487C224.132 317.487 205.172 308.869 205.172 293.11C205.172 277.35 216.253 255.681 230.042 255.681C241.943 255.681 245.76 257.28 247.771 263.315C248.264 264.792 248.756 267.008 247.771 274.149C247.336 277.306 246.034 279.723 244.718 282.169C243.056 285.255 241.369 288.388 241.369 293.11C241.369 297.183 242.6 305.422 254.42 305.422C266.239 305.422 266.239 297.408 266.239 293.11C266.239 286.931 264.689 283.705 263.185 280.575C262.077 278.269 260.994 276.015 260.576 272.672C260.146 269.232 260.083 267.008 260.576 265.111ZM317.264 348.894C321.069 347.731 323.964 346.204 323.964 346.204C326.549 344.991 327.048 342.329 325.082 340.262L313.235 327.806C311.267 325.737 309.286 326.345 308.812 329.158L305.956 346.109C305.481 348.925 307.39 350.877 310.206 350.423C310.206 350.423 313.22 350.131 317.264 348.894Z" fill="#990000"/>
</svg>
