<svg width="400" height="400" viewBox="0 0 400 400" fill="none" xmlns="http://www.w3.org/2000/svg">
<rect width="400" height="400" fill="white"/>
<path fill-rule="evenodd" clip-rule="evenodd" d="M95.3129 160.166C91.576 171.94 89.5599 184.48 89.5599 197.491C89.5599 240.692 111.788 278.701 145.431 300.705C147.293 301.923 151.12 301.281 151.12 297.039C151.12 290.406 151.12 277.504 151.12 272.771C151.12 268.038 148.239 265.172 146.974 263.803C141.905 258.316 138.808 250.98 138.808 242.922C138.808 228.96 147.927 216.613 160.846 213.401C162.939 212.881 165.155 213.127 166.524 215.865L172.99 228.796C174.511 231.838 176.977 231.837 178.497 228.797L184.071 217.649C185.592 214.607 189.58 212.142 192.98 212.142H244.076C247.475 212.142 251.464 214.607 252.984 217.649L258.682 229.043C260.202 232.084 262.667 232.086 264.188 229.043C264.188 229.043 269.477 218.465 270.627 216.166C271.777 213.866 274.732 212.881 276.74 213.449C289.472 217.054 298.617 229.019 298.617 242.922C298.617 255.421 291.167 266.18 280.465 271.001C278.491 271.889 274.239 276.409 274.239 278.134V297.587C274.239 299.827 278.657 301.714 280.797 300.296C314.091 278.231 336.046 240.425 336.046 197.491C336.046 179.324 332.115 162.075 325.057 146.548C352.37 140.253 372.735 115.785 372.735 86.5599C372.735 52.5613 345.174 25 311.175 25C279.41 25 253.264 49.0597 249.966 79.95C238.239 76.2457 225.754 74.2479 212.803 74.2479C190.126 74.2479 168.88 80.3723 150.628 91.0573C146.789 60.7484 120.911 37.312 89.5599 37.312C55.5613 37.312 28 64.8733 28 98.8718C28 132.87 55.5613 160.432 89.5599 160.432C91.4998 160.432 93.4188 160.342 95.3129 160.166ZM175.744 185.056C196.143 185.056 212.68 168.519 212.68 148.12C212.68 127.721 196.143 111.184 175.744 111.184C155.345 111.184 138.808 127.721 138.808 148.12C138.808 168.519 155.345 185.056 175.744 185.056ZM261.927 185.056C282.327 185.056 298.863 168.519 298.863 148.12C298.863 127.721 282.327 111.184 261.927 111.184C241.528 111.184 224.992 127.721 224.992 148.12C224.992 168.519 241.528 185.056 261.927 185.056Z" fill="#990000"/>
<path d="M181.9 160.432C192.099 160.432 200.368 152.163 200.368 141.964C200.368 131.764 192.099 123.496 181.9 123.496C171.7 123.496 163.432 131.764 163.432 141.964C163.432 152.163 171.7 160.432 181.9 160.432Z" fill="#990000"/>
<path d="M255.772 172.744C265.971 172.744 274.24 164.475 274.24 154.276C274.24 144.076 265.971 135.808 255.772 135.808C245.572 135.808 237.304 144.076 237.304 154.276C237.304 164.475 245.572 172.744 255.772 172.744Z" fill="#990000"/>
<path fill-rule="evenodd" clip-rule="evenodd" d="M212.68 240.706C163.432 240.706 163.432 263.852 163.432 263.852V325.413C163.432 352.611 185.481 374.66 212.68 374.66C239.877 374.66 261.927 352.611 261.927 325.413V263.852C261.927 263.852 261.927 244.745 224.991 241.251V330.827C224.991 334.228 222.236 336.985 218.835 336.985C215.436 336.985 212.68 334.229 212.68 330.827V240.708C212.68 240.707 212.68 240.706 212.68 240.706Z" fill="#990000"/>
</svg>
