<svg width="400" height="400" viewBox="0 0 400 400" fill="none" xmlns="http://www.w3.org/2000/svg">
<rect width="400" height="400" fill="white"/>
<path fill-rule="evenodd" clip-rule="evenodd" d="M243.418 120.056C251.409 109.673 256.16 96.6726 256.16 82.5632C256.16 48.5628 228.571 21 194.539 21C160.506 21 132.918 48.5628 132.918 82.5632C132.918 106.71 146.833 127.61 167.089 137.696C157.497 143.591 148.773 150.761 141.154 158.97C132.267 135.884 109.859 119.501 83.621 119.501C49.5886 119.501 22 147.064 22 181.064C22 215.065 49.5886 242.627 83.621 242.627C92.4281 242.627 100.804 240.782 108.381 237.456C108.307 239.212 108.269 240.977 108.269 242.751C108.269 310.819 163.502 366 231.635 366C271.862 366 307.593 346.764 330.113 316.996H316.304C314.234 316.996 311.904 315.909 310.291 314.342L299.295 292.37L297.774 295.41C297.303 295.72 296.861 296.248 296.487 296.995L288.792 312.371C287.514 314.925 284.159 316.996 281.3 316.996H279.331C277.261 316.996 274.931 315.91 273.318 314.342L262.322 292.37L260.801 295.41C260.331 295.72 259.888 296.248 259.515 296.995L251.819 312.371C250.541 314.925 247.187 316.996 244.327 316.996H242.358C240.288 316.996 237.959 315.91 236.345 314.342L225.349 292.37L223.829 295.409C223.358 295.719 222.916 296.248 222.542 296.996L215.909 310.249C214.63 312.803 211.472 313.947 208.958 312.586C208.958 312.586 194.046 299.242 194.046 286.214C194.046 269.214 207.842 255.433 224.858 255.433H225.841C228.7 255.433 232.056 257.506 233.333 260.057L241.028 275.433C241.402 276.181 241.844 276.709 242.315 277.019L243.836 280.058L254.832 258.085C256.446 256.517 258.775 255.433 260.844 255.433H262.814C265.673 255.433 269.029 257.506 270.306 260.057L278.001 275.433C278.375 276.181 278.817 276.709 279.287 277.019L280.808 280.058L291.805 258.085C293.418 256.517 295.747 255.433 297.817 255.433H299.786C302.646 255.433 306.001 257.506 307.278 260.057L314.974 275.433C316.252 277.987 318.325 277.985 319.602 275.433L327.298 260.057C328.576 257.503 331.932 255.433 334.789 255.433H354.355C354.781 251.263 355 247.032 355 242.751C355 178.652 306.024 125.983 243.418 120.056ZM157.073 181.31C157.073 182.54 157.164 183.747 157.34 184.928C150.376 189.221 145.735 196.914 145.735 205.689C145.735 219.154 156.66 230.069 170.137 230.069C177.526 230.069 184.148 226.787 188.623 221.603C193.098 226.787 199.72 230.069 207.11 230.069C216.73 230.069 225.05 224.507 229.024 216.426C231.712 217.445 234.628 218.002 237.674 218.002C238.763 218.002 239.836 217.931 240.888 217.792C245.095 225.127 253.008 230.069 262.076 230.069C268.032 230.069 273.491 227.936 277.727 224.394C281.964 227.936 287.422 230.069 293.379 230.069C306.856 230.069 317.781 219.154 317.781 205.689C317.781 196.536 312.731 188.561 305.264 184.392C305.391 183.383 305.457 182.354 305.457 181.31C305.457 167.846 294.531 156.931 281.055 156.931C277.962 156.931 275.004 157.506 272.281 158.555C268.471 150.051 259.927 144.126 249.998 144.126C242.676 144.126 236.108 147.348 231.635 152.45C227.162 147.348 220.593 144.126 213.272 144.126C203.245 144.126 194.63 150.168 190.877 158.807C187.983 157.599 184.807 156.931 181.475 156.931C167.998 156.931 157.073 167.846 157.073 181.31Z" fill="#990000"/>
</svg>
