<svg width="400" height="400" viewBox="0 0 400 400" fill="none" xmlns="http://www.w3.org/2000/svg">
<rect width="400" height="400" fill="white"/>
<path fill-rule="evenodd" clip-rule="evenodd" d="M187.368 15C221.366 15 248.927 42.5613 248.927 76.5599C248.927 90.6685 244.181 103.669 236.198 114.051C289.223 119.075 332.461 157.695 344.394 208.393C345.614 213.578 347.177 224.304 337.596 224.304H328.956C325.556 224.304 321.567 226.769 320.046 229.811L313.241 243.421C311.72 246.462 309.255 246.462 307.734 243.421L300.929 229.811C299.408 226.769 295.42 224.304 292.019 224.304C288.62 224.304 284.631 226.769 283.11 229.811L276.305 243.421C274.784 246.462 272.319 246.462 270.798 243.421L263.993 229.811C262.472 226.769 258.484 224.304 255.083 224.304C251.684 224.304 247.695 226.769 246.174 229.811L239.369 243.421C237.848 246.462 235.383 246.462 233.862 243.421L227.057 229.811C225.536 226.769 221.546 224.304 218.149 224.304C201.15 224.304 187.368 238.084 187.368 255.083C187.368 263.793 190.132 272.099 196.801 277.258C198.695 278.722 199.68 280.2 199.68 284.351V298.173C199.68 298.174 199.68 298.175 199.68 298.175C199.68 310.487 187.368 309.502 187.368 328.955C187.368 340.529 196.933 347.423 206.082 347.423C215.231 347.423 224.304 340.775 224.304 328.955C224.304 309.502 211.992 310.487 211.992 298.175V279.71C211.992 276.309 213.224 271.086 214.745 268.044L215.394 266.747C216.915 263.705 219.38 263.705 220.901 266.747L221.55 268.044C223.071 271.086 224.304 276.307 224.304 279.71V298.175C224.304 304.973 229.816 310.487 236.616 310.487C243.417 310.487 248.927 304.975 248.927 298.175V292.019C248.927 288.62 250.16 283.398 251.681 280.357L258.486 266.746C260.007 263.705 262.472 263.705 263.993 266.746L270.798 280.357C272.319 283.398 273.551 288.619 273.551 292.019V298.175C273.551 310.487 267.395 310.241 267.395 322.799C267.395 330.925 275.275 335.111 279.831 335.111C284.386 335.111 292.019 331.418 292.019 322.799C292.019 310.487 285.863 310.487 285.863 298.175V292.019C285.863 288.62 287.096 283.398 288.617 280.357L295.422 266.746C296.943 263.705 299.408 263.705 300.929 266.746L307.734 280.357C309.255 283.398 313.242 285.863 316.643 285.863H332.403C336.589 285.863 335.992 289.203 335.19 290.842C315.153 331.786 273.083 359.982 224.427 359.982C156.362 359.982 101.184 304.804 101.184 236.739C101.184 234.965 101.221 233.2 101.295 231.444C93.7254 234.77 85.3582 236.616 76.5599 236.616C42.5613 236.616 15 209.054 15 175.056C15 141.057 42.5613 113.496 76.5599 113.496C102.772 113.496 125.157 129.878 134.036 152.962C141.647 144.754 150.362 137.585 159.945 131.69C139.709 121.605 125.808 100.706 125.808 76.5599C125.808 42.5613 153.369 15 187.368 15ZM205.836 150.432C195.636 150.432 187.368 158.7 187.368 168.9C187.368 179.099 195.636 187.368 205.836 187.368C216.035 187.368 224.304 179.099 224.304 168.9C224.304 158.7 216.035 150.432 205.836 150.432ZM279.707 150.432C269.508 150.432 261.239 158.7 261.239 168.9C261.239 179.099 269.508 187.368 279.707 187.368C289.907 187.368 298.175 179.099 298.175 168.9C298.175 158.7 289.907 150.432 279.707 150.432Z" fill="#990000"/>
</svg>
