<svg width="400" height="400" viewBox="0 0 400 400" fill="none" xmlns="http://www.w3.org/2000/svg">
<rect width="400" height="400" fill="white"/>
<path fill-rule="evenodd" clip-rule="evenodd" d="M304.979 150.8C332.865 144.932 353.799 120.191 353.799 90.5599C353.799 56.5613 326.238 29 292.239 29C258.241 29 230.68 56.5613 230.68 90.5599C230.68 99.8251 232.726 108.612 236.393 116.494C230.509 115.631 224.491 115.184 218.368 115.184C200.501 115.184 183.524 118.989 168.202 125.834C168.805 122.375 169.12 118.816 169.12 115.184C169.12 81.1852 141.558 53.6239 107.56 53.6239C73.5613 53.6239 46 81.1852 46 115.184C46 149.182 73.5613 176.744 107.56 176.744C108.986 176.744 110.401 176.695 111.803 176.6C101.275 194.742 95.2479 215.819 95.2479 238.304C95.2479 306.301 150.37 361.423 218.368 361.423C286.365 361.423 341.487 306.301 341.487 238.304C341.487 204.078 327.522 173.114 304.979 150.8ZM273.772 238.304C297.571 238.304 316.863 219.011 316.863 195.212C316.863 171.413 297.571 152.12 273.772 152.12C249.973 152.12 230.68 171.413 230.68 195.212C230.68 219.011 249.973 238.304 273.772 238.304ZM175.276 238.304C199.075 238.304 218.368 219.011 218.368 195.212C218.368 171.413 199.075 152.12 175.276 152.12C151.477 152.12 132.184 171.413 132.184 195.212C132.184 219.011 151.477 238.304 175.276 238.304ZM242.993 250.616C239.864 250.616 236.195 252.882 234.796 255.68L227.548 270.175C226.15 272.972 223.883 272.973 222.484 270.175L215.237 255.68C213.838 252.883 210.168 250.616 207.039 250.616H206.057C202.928 250.616 199.259 252.882 197.86 255.68L190.613 270.175C189.214 272.972 186.945 272.97 185.548 270.175L177.095 253.27C176.261 251.6 174.045 250.616 171.169 250.948C155.771 252.727 144.742 265.938 144.742 281.395C144.742 293.027 151.076 303.184 160.715 308.386C162.718 309.467 164.934 308.728 165.782 307.031C168.185 302.226 172.989 292.617 172.989 292.617C174.388 289.82 176.655 289.818 178.054 292.616L185.302 307.111C186.7 309.908 190.37 312.175 193.499 312.175H194.481C197.61 312.175 201.279 309.908 202.678 307.111L209.926 292.616C211.324 289.819 213.591 289.818 214.99 292.616L222.237 307.111C223.636 309.908 227.306 312.175 230.435 312.175H231.417C234.546 312.175 238.215 309.908 239.614 307.111L246.861 292.616C248.26 289.819 250.527 289.818 251.926 292.616L259.173 307.111C260.572 309.908 264.242 312.175 267.368 312.175H268.109C271.236 312.175 274.923 309.917 276.345 307.129L283.756 292.598C285.178 289.811 287.447 289.827 288.83 292.633C288.83 292.633 292.205 299.548 293.207 301.306C294.209 303.065 296.179 302.572 297.145 301.423C301.679 296.029 304.551 289.043 304.551 281.395C304.551 265.88 293.479 252.556 278.14 250.923C275.249 250.616 273.771 251.354 272.943 253.258C272.114 255.162 264.506 270.185 264.506 270.185C263.095 272.977 260.819 272.973 259.42 270.175L252.172 255.68C250.774 252.883 247.104 250.616 243.975 250.616H242.993ZM175.276 213.68C185.475 213.68 193.744 205.411 193.744 195.212C193.744 185.012 185.475 176.744 175.276 176.744C165.076 176.744 156.808 185.012 156.808 195.212C156.808 205.411 165.076 213.68 175.276 213.68ZM273.772 213.68C283.971 213.68 292.239 205.411 292.239 195.212C292.239 185.012 283.971 176.744 273.772 176.744C263.572 176.744 255.304 185.012 255.304 195.212C255.304 205.411 263.572 213.68 273.772 213.68Z" fill="#990000"/>
</svg>
