<svg viewBox="0 0 400 400" fill="none" xmlns="http://www.w3.org/2000/svg">
<rect width="400" height="400" fill="white"/>
<path fill-rule="evenodd" clip-rule="evenodd" d="M160.32 119.967C172.823 115.697 186.23 113.379 200.179 113.379C214.025 113.379 227.338 115.663 239.762 119.873C237.961 114.088 236.992 107.937 236.992 101.56C236.992 67.5613 264.553 40 298.551 40C332.55 40 360.111 67.5613 360.111 101.56C360.111 135.372 332.852 162.816 299.112 163.117C314.384 183.639 323.422 209.075 323.422 236.622C323.422 304.687 268.244 359.865 200.179 359.865C132.114 359.865 76.9359 304.687 76.9359 236.622C76.9359 209.076 85.9732 183.64 101.245 163.119C67.3911 162.949 40 135.453 40 101.56C40 67.5613 67.5613 40 101.56 40C135.558 40 163.12 67.5613 163.12 101.56C163.12 107.972 162.139 114.155 160.32 119.967ZM208.789 227.557C203.977 223.999 196.177 223.997 191.363 227.557L169.665 243.6C164.853 247.158 162.489 245.443 164.387 239.765L172.94 214.172C174.837 208.495 172.428 201.077 167.555 197.598L145.592 181.92C140.721 178.443 141.621 175.665 147.608 175.715L174.592 175.94C180.576 175.99 186.887 171.407 188.69 165.697L196.814 139.965C198.615 134.258 201.536 134.255 203.338 139.965L211.462 165.697C213.264 171.404 219.573 175.99 225.56 175.94L252.544 175.715C258.528 175.665 259.433 178.441 254.56 181.92L232.597 197.598C227.726 201.075 225.315 208.493 227.212 214.172L235.765 239.765C237.662 245.441 235.301 247.159 230.487 243.6L208.789 227.557ZM292.556 247.265C294.764 243.567 298.364 245.385 298 248.833C292.76 298.365 250.853 336.957 199.932 336.957C149.151 336.957 107.335 298.575 101.909 249.239C101.516 245.66 105.159 244.38 107.405 248.068C112.591 256.584 118.922 264.326 126.184 271.081L126.184 293.135C126.184 299.662 129.125 300.556 132.755 295.13L141.076 282.689C157.968 293.634 178.111 299.989 199.738 299.989C221.628 299.989 241.996 293.479 259.014 282.289L267.739 295.333C271.293 300.648 274.174 299.772 274.174 293.38V270.252C281.293 263.481 287.49 255.75 292.556 247.265Z" fill="#990000"/>
</svg>
